<?xml version="1.0" encoding="UTF-8" standalone="no"?><!DOCTYPE svg PUBLIC "-//W3C//DTD SVG 1.1//EN" "http://www.w3.org/Graphics/SVG/1.1/DTD/svg11.dtd"><svg width="100%" height="100%" viewBox="0 0 609 150" version="1.1" xmlns="http://www.w3.org/2000/svg" xmlns:xlink="http://www.w3.org/1999/xlink" xml:space="preserve" xmlns:serif="http://www.serif.com/" style="fill-rule:evenodd;clip-rule:evenodd;stroke-miterlimit:2;"><path d="M607.87,71.076c-0,-39.232 -31.804,-71.036 -71.036,-71.036c-116.956,-0 -348.714,-0 -465.537,-0c-18.786,-0 -36.803,7.463 -50.087,20.746c-13.284,13.284 -20.747,31.301 -20.747,50.087c0,2.762 0,5.532 0,8.294c0,39.098 31.696,70.793 70.794,70.793c116.878,0 348.879,0 465.782,0c18.786,0 36.802,-7.462 50.085,-20.746c13.283,-13.283 20.746,-31.299 20.746,-50.085c-0,-2.681 -0,-5.371 -0,-8.053Z" style="fill:#1f1b2e;"/><g><g><path d="M142.556,66.077c-1.31,-6.92 -5.035,-11.231 -8.853,-13.896c-3.948,-2.757 -8.677,-4.173 -13.493,-4.173l-68.338,-0c-2.378,-0 -3.288,2.321 -3.297,3.483c-0.001,0.152 0.004,0.759 0.004,0.759c0,-0 -0.112,30.234 0.1,46.382c0.645,9.533 10.197,9.53 10.197,9.53c0,0 31.186,-0.091 46.142,-0.184c0.702,-0.005 1.402,-0.08 2.083,-0.251c8.515,-2.13 9.396,-10.041 9.305,-14.451c17.116,0.951 29.193,-11.127 26.15,-27.199Zm-19.227,15.691c-3.651,0.456 -6.616,0.114 -6.616,0.114l-0,-22.351l4.491,-0c2.969,-0 5.832,1.236 7.769,3.485c1.364,1.584 2.455,3.813 2.455,6.892c-0,7.526 -3.879,10.491 -8.099,11.86Z" style="fill:#fff;fill-rule:nonzero;"/><path d="M142.556,66.077c-1.31,-6.92 -5.035,-11.231 -8.853,-13.896c-3.948,-2.757 -8.677,-4.173 -13.493,-4.173l-68.338,-0c-2.378,-0 -3.288,2.321 -3.297,3.483c-0.001,0.152 0.004,0.759 0.004,0.759c0,-0 -0.112,30.234 0.1,46.382c0.645,9.533 10.197,9.53 10.197,9.53c0,0 31.186,-0.091 46.142,-0.184c0.702,-0.005 1.402,-0.08 2.083,-0.251c8.515,-2.13 9.396,-10.041 9.305,-14.451c17.116,0.951 29.193,-11.127 26.15,-27.199Zm-19.227,15.691c-3.651,0.456 -6.616,0.114 -6.616,0.114l-0,-22.351l4.491,-0c2.969,-0 5.832,1.236 7.769,3.485c1.364,1.584 2.455,3.813 2.455,6.892c-0,7.526 -3.879,10.491 -8.099,11.86Z" style="fill:none;stroke:#323b47;stroke-width:1.87px;"/><path d="M82.049,95.624c0.744,0.374 1.219,-0.091 1.219,-0.091c-0,0 10.876,-9.927 15.776,-15.644c4.359,-5.115 4.643,-13.734 -2.842,-16.954c-7.484,-3.221 -13.642,3.788 -13.642,3.788c-5.341,-5.873 -13.423,-5.576 -17.161,-1.601c-3.738,3.975 -2.433,10.797 0.356,14.594c2.618,3.564 14.124,13.82 15.869,15.554c-0,0 0.126,0.133 0.425,0.354Z" style="fill:#f15e5e;fill-rule:nonzero;"/></g><text x="167.268px" y="91.404px" style="font-family:'ArialRoundedMTBold', 'Arial Rounded MT Bold', sans-serif;font-size:50px;fill:#fff;">Suppor<tspan x="346.028px 363.728px " y="91.404px 91.404px ">t </tspan>on K<tspan x="484.236px 514.436px 531.086px 548.347px " y="91.404px 91.404px 91.404px 91.404px ">o-fi</tspan></text></g></svg>