<?xml version="1.0" encoding="UTF-8" standalone="no"?><!DOCTYPE svg PUBLIC "-//W3C//DTD SVG 1.1//EN" "http://www.w3.org/Graphics/SVG/1.1/DTD/svg11.dtd"><svg width="100%" height="100%" viewBox="0 0 609 150" version="1.1" xmlns="http://www.w3.org/2000/svg" xmlns:xlink="http://www.w3.org/1999/xlink" xml:space="preserve" xmlns:serif="http://www.serif.com/" style="fill-rule:evenodd;clip-rule:evenodd;stroke-miterlimit:2;"><path d="M607.87,71.076c-0,-39.232 -31.804,-71.036 -71.036,-71.036c-116.956,-0 -348.714,-0 -465.537,-0c-18.786,-0 -36.803,7.463 -50.087,20.746c-13.284,13.284 -20.747,31.301 -20.747,50.087c0,2.762 0,5.532 0,8.294c0,39.098 31.696,70.793 70.794,70.793c116.878,0 348.879,0 465.782,0c18.786,0 36.802,-7.462 50.085,-20.746c13.283,-13.283 20.746,-31.299 20.746,-50.085c-0,-2.681 -0,-5.371 -0,-8.053Z" style="fill:#1f1b2e;"/><g><g><path d="M152.198,61.76c-1.445,-7.629 -5.552,-12.382 -9.761,-15.321c-4.353,-3.039 -9.568,-4.601 -14.877,-4.601l-75.348,-0c-2.621,-0 -3.625,2.559 -3.635,3.841c-0.001,0.167 0.005,0.836 0.005,0.836c0,-0 -0.123,33.335 0.11,51.139c0.712,10.512 11.243,10.508 11.243,10.508c0,0 34.385,-0.101 50.875,-0.203c0.773,-0.005 1.545,-0.088 2.296,-0.276c9.389,-2.349 10.36,-11.071 10.26,-15.934c18.871,1.049 32.187,-12.268 28.832,-29.989Zm-21.2,17.301c-4.025,0.503 -7.294,0.125 -7.294,0.125l-0,-24.643l4.952,-0c3.273,-0 6.43,1.362 8.566,3.843c1.503,1.746 2.706,4.203 2.706,7.598c-0,8.299 -4.276,11.568 -8.93,13.077Z" style="fill:#fff;fill-rule:nonzero;"/><path d="M152.198,61.76c-1.445,-7.629 -5.552,-12.382 -9.761,-15.321c-4.353,-3.039 -9.568,-4.601 -14.877,-4.601l-75.348,-0c-2.621,-0 -3.625,2.559 -3.635,3.841c-0.001,0.167 0.005,0.836 0.005,0.836c0,-0 -0.123,33.335 0.11,51.139c0.712,10.512 11.243,10.508 11.243,10.508c0,0 34.385,-0.101 50.875,-0.203c0.773,-0.005 1.545,-0.088 2.296,-0.276c9.389,-2.349 10.36,-11.071 10.26,-15.934c18.871,1.049 32.187,-12.268 28.832,-29.989Zm-21.2,17.301c-4.025,0.503 -7.294,0.125 -7.294,0.125l-0,-24.643l4.952,-0c3.273,-0 6.43,1.362 8.566,3.843c1.503,1.746 2.706,4.203 2.706,7.598c-0,8.299 -4.276,11.568 -8.93,13.077Z" style="fill:none;stroke:#323b47;stroke-width:2.71px;"/><path d="M85.485,94.338c0.82,0.413 1.343,-0.1 1.343,-0.1c0,-0 11.993,-10.946 17.395,-17.249c4.806,-5.639 5.119,-15.142 -3.133,-18.693c-8.252,-3.551 -15.042,4.177 -15.042,4.177c-5.888,-6.476 -14.799,-6.148 -18.921,-1.765c-4.121,4.382 -2.682,11.904 0.393,16.091c2.886,3.929 15.573,15.237 17.496,17.149c-0,-0 0.14,0.146 0.469,0.39Z" style="fill:#f15e5e;fill-rule:nonzero;"/></g><text x="164.813px" y="86.37px" style="font-family:'ArialRoundedMTBold', 'Arial Rounded MT Bold', sans-serif;font-size:50px;fill:#fff;">Suppor<tspan x="343.572px 361.273px " y="86.37px 86.37px ">t </tspan>on K<tspan x="481.78px 511.981px 528.631px 545.892px " y="86.37px 86.37px 86.37px 86.37px ">o-fi</tspan></text></g></svg>